<mxfile host="Electron" modified="2025-07-04T17:34:57.603Z" agent="Mozilla/5.0 (Windows NT 10.0; Win64; x64) AppleWebKit/537.36 (KHTML, like Gecko) draw.io/24.0.4 Chrome/120.0.6099.109 Electron/28.1.0 Safari/537.36" etag="ePwQ93lIKaZZs9g0E-WH" version="24.0.4" type="device">
  <diagram name="Page-1" id="Ikurisf6gKU5D0WnUJwT">
    <mxGraphModel dx="1276" dy="606" grid="1" gridSize="10" guides="1" tooltips="1" connect="1" arrows="1" fold="1" page="1" pageScale="1" pageWidth="850" pageHeight="1100" math="0" shadow="0">
      <root>
        <mxCell id="0" />
        <mxCell id="1" parent="0" />
        <mxCell id="Cvl91ToUlRYQaEAVH23j-4" style="edgeStyle=orthogonalEdgeStyle;rounded=0;orthogonalLoop=1;jettySize=auto;html=1;entryX=0;entryY=0.5;entryDx=0;entryDy=0;" edge="1" parent="1" source="Cvl91ToUlRYQaEAVH23j-1" target="Cvl91ToUlRYQaEAVH23j-3">
          <mxGeometry relative="1" as="geometry" />
        </mxCell>
        <mxCell id="Cvl91ToUlRYQaEAVH23j-1" value="start" style="ellipse;whiteSpace=wrap;html=1;" vertex="1" parent="1">
          <mxGeometry x="50" y="40" width="120" height="80" as="geometry" />
        </mxCell>
        <mxCell id="Cvl91ToUlRYQaEAVH23j-2" value="end" style="ellipse;whiteSpace=wrap;html=1;" vertex="1" parent="1">
          <mxGeometry x="305" y="470" width="120" height="80" as="geometry" />
        </mxCell>
        <mxCell id="Cvl91ToUlRYQaEAVH23j-6" value="" style="edgeStyle=orthogonalEdgeStyle;rounded=0;orthogonalLoop=1;jettySize=auto;html=1;" edge="1" parent="1" source="Cvl91ToUlRYQaEAVH23j-3" target="Cvl91ToUlRYQaEAVH23j-7">
          <mxGeometry relative="1" as="geometry">
            <mxPoint x="320" y="200" as="targetPoint" />
          </mxGeometry>
        </mxCell>
        <mxCell id="Cvl91ToUlRYQaEAVH23j-3" value="fetch request&amp;nbsp;" style="rounded=0;whiteSpace=wrap;html=1;" vertex="1" parent="1">
          <mxGeometry x="260" y="60" width="120" height="60" as="geometry" />
        </mxCell>
        <mxCell id="Cvl91ToUlRYQaEAVH23j-9" value="yes" style="edgeStyle=orthogonalEdgeStyle;rounded=0;orthogonalLoop=1;jettySize=auto;html=1;" edge="1" parent="1" source="Cvl91ToUlRYQaEAVH23j-7" target="Cvl91ToUlRYQaEAVH23j-8">
          <mxGeometry relative="1" as="geometry" />
        </mxCell>
        <mxCell id="Cvl91ToUlRYQaEAVH23j-10" value="no" style="edgeStyle=orthogonalEdgeStyle;rounded=0;orthogonalLoop=1;jettySize=auto;html=1;exitX=0;exitY=0.5;exitDx=0;exitDy=0;entryX=0.5;entryY=0;entryDx=0;entryDy=0;" edge="1" parent="1" source="Cvl91ToUlRYQaEAVH23j-7" target="Cvl91ToUlRYQaEAVH23j-12">
          <mxGeometry relative="1" as="geometry">
            <mxPoint x="220" y="300" as="targetPoint" />
          </mxGeometry>
        </mxCell>
        <mxCell id="Cvl91ToUlRYQaEAVH23j-7" value="uer is authenticated&amp;nbsp;" style="rhombus;whiteSpace=wrap;html=1;" vertex="1" parent="1">
          <mxGeometry x="280" y="160" width="100" height="90" as="geometry" />
        </mxCell>
        <mxCell id="Cvl91ToUlRYQaEAVH23j-11" style="edgeStyle=orthogonalEdgeStyle;rounded=0;orthogonalLoop=1;jettySize=auto;html=1;entryX=0.5;entryY=0;entryDx=0;entryDy=0;" edge="1" parent="1" source="Cvl91ToUlRYQaEAVH23j-8" target="Cvl91ToUlRYQaEAVH23j-12">
          <mxGeometry relative="1" as="geometry">
            <mxPoint x="490" y="380" as="targetPoint" />
            <Array as="points">
              <mxPoint x="510" y="320" />
              <mxPoint x="350" y="320" />
            </Array>
          </mxGeometry>
        </mxCell>
        <mxCell id="Cvl91ToUlRYQaEAVH23j-8" value="get the number of unread notifications" style="whiteSpace=wrap;html=1;" vertex="1" parent="1">
          <mxGeometry x="450" y="175" width="120" height="60" as="geometry" />
        </mxCell>
        <mxCell id="Cvl91ToUlRYQaEAVH23j-13" style="edgeStyle=orthogonalEdgeStyle;rounded=0;orthogonalLoop=1;jettySize=auto;html=1;" edge="1" parent="1" source="Cvl91ToUlRYQaEAVH23j-12" target="Cvl91ToUlRYQaEAVH23j-2">
          <mxGeometry relative="1" as="geometry" />
        </mxCell>
        <mxCell id="Cvl91ToUlRYQaEAVH23j-12" value="render quiz form page" style="rounded=0;whiteSpace=wrap;html=1;" vertex="1" parent="1">
          <mxGeometry x="290" y="340" width="120" height="60" as="geometry" />
        </mxCell>
      </root>
    </mxGraphModel>
  </diagram>
</mxfile>
